<svg width="163" height="43" viewBox="0 0 163 43" fill="none" xmlns="http://www.w3.org/2000/svg">
<path d="M15.104 13.904V16.88L9.728 18.224L8.96 26H2.72L0.8 6.608H15.52L16.512 10.576L10.464 10.96L10.144 13.904H15.104ZM20.104 24.432C18.568 23.152 17.8 21.1253 17.8 18.352C17.8 15.5787 18.568 13.5627 20.104 12.304C21.6613 11.024 23.7307 10.384 26.312 10.384C28.8933 10.384 30.952 11.024 32.488 12.304C34.0453 13.5627 34.824 15.5787 34.824 18.352C34.824 21.1253 34.0453 23.152 32.488 24.432C30.952 25.6907 28.8933 26.32 26.312 26.32C23.7307 26.32 21.6613 25.6907 20.104 24.432ZM24.968 14.736C24.712 15.4613 24.584 16.6667 24.584 18.352C24.584 20.0373 24.712 21.2533 24.968 22C25.224 22.7253 25.672 23.088 26.312 23.088C26.952 23.088 27.4 22.7253 27.656 22C27.912 21.2533 28.04 20.0373 28.04 18.352C28.04 16.6667 27.912 15.4613 27.656 14.736C27.4 13.9893 26.952 13.616 26.312 13.616C25.672 13.616 25.224 13.9893 24.968 14.736ZM38.729 24.432C37.193 23.152 36.425 21.1253 36.425 18.352C36.425 15.5787 37.193 13.5627 38.729 12.304C40.2863 11.024 42.3557 10.384 44.937 10.384C47.5183 10.384 49.577 11.024 51.113 12.304C52.6703 13.5627 53.449 15.5787 53.449 18.352C53.449 21.1253 52.6703 23.152 51.113 24.432C49.577 25.6907 47.5183 26.32 44.937 26.32C42.3557 26.32 40.2863 25.6907 38.729 24.432ZM43.593 14.736C43.337 15.4613 43.209 16.6667 43.209 18.352C43.209 20.0373 43.337 21.2533 43.593 22C43.849 22.7253 44.297 23.088 44.937 23.088C45.577 23.088 46.025 22.7253 46.281 22C46.537 21.2533 46.665 20.0373 46.665 18.352C46.665 16.6667 46.537 15.4613 46.281 14.736C46.025 13.9893 45.577 13.616 44.937 13.616C44.297 13.616 43.849 13.9893 43.593 14.736ZM55.05 18.064C55.05 16.592 55.2527 15.3227 55.658 14.256C56.0847 13.1893 56.6393 12.3893 57.322 11.856C58.5807 10.8747 59.978 10.384 61.514 10.384C62.282 10.384 62.986 10.544 63.626 10.864C64.2873 11.1627 64.746 11.472 65.002 11.792L65.386 12.24L65.13 5.232H72.426L71.562 26H66.762L66.218 23.92C64.938 25.4987 63.3593 26.288 61.482 26.288C59.626 26.3093 58.09 25.616 56.874 24.208C55.658 22.8 55.05 20.752 55.05 18.064ZM63.562 14.672C62.3033 14.672 61.674 15.952 61.674 18.512C61.674 18.9813 61.706 19.4293 61.77 19.856C61.834 20.2827 62.026 20.7307 62.346 21.2C62.666 21.6693 63.1353 21.904 63.754 21.904C64.3727 21.904 64.842 21.5627 65.162 20.88C65.5033 20.176 65.674 19.3867 65.674 18.512C65.674 15.952 64.97 14.672 63.562 14.672ZM157.686 22.384C158.091 21.936 158.699 21.712 159.51 21.712C160.32 21.712 160.928 21.936 161.334 22.384C161.739 22.8107 161.942 23.3547 161.942 24.016C161.942 24.6773 161.739 25.232 161.334 25.68C160.928 26.1067 160.32 26.32 159.51 26.32C158.699 26.32 158.091 26.1067 157.686 25.68C157.28 25.232 157.078 24.6773 157.078 24.016C157.078 23.3547 157.28 22.8107 157.686 22.384Z" fill="#FF6000"/>
<path d="M88.9013 22.768C90.3733 22.768 91.5146 21.9893 92.3253 20.432C93.1359 18.8747 93.5413 17.2427 93.5413 15.536C93.5413 13.808 93.2319 12.432 92.6133 11.408C91.9946 10.384 91.1946 9.872 90.2133 9.872H90.0213L88.7093 22.768H88.9013ZM88.7733 26H82.5013L80.5813 6.608H90.0213C94.7786 6.608 98.0533 7.90933 99.8453 10.512C100.784 11.8987 101.253 13.5413 101.253 15.44C101.253 22.48 97.0933 26 88.7733 26ZM108.338 26.32C106.696 26.32 105.341 25.84 104.274 24.88C103.229 23.92 102.706 22.5653 102.706 20.816C102.706 19.0453 103.304 17.7653 104.498 16.976C105.693 16.1653 107.133 15.76 108.818 15.76C110.504 15.76 111.965 16.0267 113.202 16.56C112.925 14.7893 111.805 13.904 109.842 13.904C108.946 13.904 107.837 14.0853 106.514 14.448L105.714 11.568C107.634 10.7787 109.586 10.384 111.57 10.384C117.288 10.384 120.146 12.816 120.146 17.68C120.146 19.344 119.954 21.648 119.57 24.592L119.41 26H114.13L113.938 24.24C112.488 25.6267 110.621 26.32 108.338 26.32ZM111.218 22.352C112.178 22.352 113 22.0853 113.682 21.552L113.49 19.44C112.957 19.0773 112.36 18.896 111.698 18.896C111.058 18.896 110.525 19.056 110.098 19.376C109.693 19.696 109.49 20.0907 109.49 20.56C109.49 21.0293 109.65 21.4453 109.97 21.808C110.29 22.1707 110.706 22.352 111.218 22.352ZM135.942 21.2C135.942 22.416 135.536 23.4293 134.726 24.24C133.915 25.0507 132.976 25.6053 131.91 25.904C130.864 26.1813 129.851 26.32 128.87 26.32C127.888 26.32 127.024 26.256 126.278 26.128C125.552 26 124.934 25.8507 124.422 25.68C123.483 25.3173 122.736 24.976 122.182 24.656L121.894 24.464L123.302 21.552C124.582 22.2773 125.659 22.64 126.534 22.64C127.408 22.64 127.846 22.2773 127.846 21.552C127.846 21.1893 127.568 20.816 127.014 20.432C126.459 20.048 125.851 19.6853 125.19 19.344C124.55 19.0027 123.952 18.48 123.398 17.776C122.843 17.072 122.566 16.2613 122.566 15.344C122.566 13.7013 123.184 12.464 124.422 11.632C125.659 10.8 127.291 10.384 129.318 10.384C130.342 10.384 131.344 10.4693 132.326 10.64C133.307 10.8107 134.043 10.9813 134.534 11.152L135.238 11.44L134.438 14.672C133.222 14.224 132.187 14 131.334 14C130.48 14 130.054 14.3307 130.054 14.992C130.054 15.312 130.256 15.6213 130.662 15.92C131.067 16.1973 131.558 16.4747 132.134 16.752C132.71 17.0293 133.286 17.3493 133.862 17.712C134.438 18.0533 134.928 18.5333 135.334 19.152C135.739 19.7493 135.942 20.432 135.942 21.2ZM150.542 10.384C151.758 10.384 152.75 10.7467 153.518 11.472C154.286 12.176 154.798 13.0293 155.054 14.032C155.331 15.0347 155.47 16.3147 155.47 17.872C155.47 19.4293 155.225 22.1387 154.734 26H149.134L148.43 18.576C148.302 17.296 148.131 16.4427 147.918 16.016C147.705 15.5893 147.342 15.376 146.83 15.376C145.571 15.376 144.889 16.4533 144.782 18.608L144.462 26H138.574L137.71 5.232H145.326L145.006 13.552C145.689 12.1867 146.819 11.2373 148.398 10.704C149.059 10.4907 149.774 10.384 150.542 10.384Z" fill="#2A2A2A"/>
<path d="M6.5 42H156.5" stroke="#FF6000" stroke-width="2" stroke-linecap="round" stroke-dasharray="12 12"/>
</svg>
